<svg id="svg9" version="1.0" viewBox="0 0 1000 1000" xmlns="http://www.w3.org/2000/svg"
     preserveAspectRatio="xMidYMid meet" fill="currentColor">    
    <g id="g9" transform="translate(0 1e3) scale(.1 -.1)">
        <path id="path5" d="m4220 7685c-79-22-100-34-148-82-87-87-120-198-107-361 10-135 63-228 164-287 27-16 52-35 55-41 2-6-28-44-68-85-95-97-218-245-286-341-29-43-58-78-64-78s-30 29-54 64c-43 62-141 171-194 214-16 12-53 36-83 53s-55 33-55 36 22 29 49 59c94 103 135 235 112 366-29 167-98 261-221 302-136 46-344 33-435-27s-137-137-156-259c-21-136 9-267 82-355 21-26 39-50 39-54 0-3-12-12-27-20-73-36-216-145-284-216-163-169-228-302-264-545-14-90-14-109 0-191 33-191 105-332 249-484 27-29 53-53 57-53 5 0 32-11 61-24 29-14 88-37 130-51 42-15 79-34 82-42 7-16-18-145-41-213-24-71-86-201-147-303-73-124-165-305-200-392-15-38-32-78-37-87-5-10-9-27-9-38 0-53-230-4-355 75-52 33-125 104-171 165-60 81-139 270-174 415-26 111-7 248 46 328 25 38 97 109 118 116 6 2 22 12 36 21 35 24 176 70 215 70 82 0 175-190 175-357 0-79-1-82-31-106-28-22-34-23-75-12-68 17-79 40-78 160 1 65 7 117 17 148 25 72 24 77-28 77-41 0-45-3-51-27-10-47-34-95-85-170-53-78-56-93-34-146 18-43 100-127 125-127 10 0 47-9 81-20l63-19 46 26c67 40 156 129 185 186 19 40 25 66 25 120 0 60-5 78-35 136-19 36-66 99-105 140l-69 74-118-7c-174-10-320-64-419-152-18-17-85-144-105-199-80-223-72-405 24-559 18-28 38-63 46-78 36-71 245-296 356-383 27-22 56-46 63-53 27-25 70-41 130-48 35-3 65-11 68-15 3-5 14-9 25-9 55 0 101-56 134-162 11-34 100-162 144-207 76-77 177-125 234-111 154 40 165 35 147-67-6-37-16-86-22-108-15-58-70-165-91-176-27-15-119-7-127 11-44 96-67 132-100 159-66 53-113 66-230 65-93 0-112-4-162-28-113-54-153-133-153-301 0-161 44-242 162-296 69-31 247-32 313-1 63 29 117 86 151 159 17 36 36 63 44 63 21 0 19-19-9-81-12-30-31-81-40-114s-21-73-26-90c-10-35-14-113-12-237l2-88 73-76c118-125 224-184 302-170 75 14 147 102 191 234 27 81 28 81 11 142-32 112-100 184-199 208-118 29-168 8-219-94-29-58-34-64-37-41-4 33 21 107 60 177 35 62 138 192 171 215 19 13 241 15 1992 15h1972l19-22c43-51 57-88 79-213 43-239-6-364-162-414-55-18-65-13-158 77l-75 73v104c0 117-1 115 85 115h53l5-38c3-20 9-61 13-90 5-42 12-57 34-72 36-26 54-25 72 3 46 71 39 159-20 228-43 51-132 109-165 109-37 0-141-74-180-128-42-58-63-101-81-172-17-64-13-75 63-151 222-224 434-208 621 47 28 37 51 74 52 83s2 115 2 236c1 213 2 220 21 220 15 0 23-11 33-40 21-67 80-135 147-169 56-29 67-31 165-31 91 1 112 4 160 27 111 52 154 122 166 268 12 143-37 258-134 316-88 53-266 57-362 9-64-33-140-121-140-162 0-34-32-53-89-53-47 0-57 4-83 32-49 53-89 116-110 176-20 57-43 245-33 263 4 5 60 9 126 9 129 0 209 16 336 67 93 37 180 123 216 216 15 37 27 78 27 91 0 26 10 31 126 60 296 73 538 358 640 756 25 97 29 255 9 335-36 142-116 256-249 355-66 50-71 51-115 45-129-19-260-85-363-183-84-81-118-139-118-204 0-79 31-141 108-221 44-44 63-57 86-57 118 0 298 128 326 232 17 63 4 129-39 190-34 49-40 53-76 53-39 0-40-1-43-40-2-22 2-65 8-96 10-47 10-65-4-112l-16-55-67-4c-95-7-107 1-100 66 9 84 34 149 86 225 60 89 79 104 117 92 16-5 49-15 74-22 89-26 172-95 209-174 19-41 45-161 37-174-2-3-7-42-10-86-4-44-11-91-15-105-5-14-14-45-21-70-62-227-183-404-331-484-57-32-182-68-203-60-14 6-18 11-72 129-60 132-89 195-136 295-73 156-98 243-98 344 0 75 12 113 58 185 80 125 143 305 181 517 14 78 14 486 0 556-34 169-76 274-146 371-32 43-115 120-188 173l-29 20 50 50c70 72 82 93 102 169 41 159 9 321-83 418-62 66-119 90-250 105-94 12-215-3-285-35-59-26-123-92-157-162-25-52-27-65-28-191 0-130 1-137 29-190 16-30 44-74 63-97s32-47 28-52c-3-6-23-18-43-28-44-21-142-89-194-135-41-36-168-188-168-200 0-4-9-8-20-8-13 0-20 7-20 20 0 33-70 166-119 227-26 33-78 79-120 107-74 49-74 50-51 65 52 36 123 108 147 148 67 115 69 304 4 435-27 55-47 77-100 116-65 47-137 64-276 65-129 0-168-8-246-55-89-54-128-120-152-258-25-151 9-275 104-375 47-50 56-75 25-75-7 0-36-11-64-25-29-14-54-25-57-25-4 0-32-18-64-39-86-59-173-159-226-261-43-84-65-110-65-76 0 24-51 137-88 196-63 100-217 234-356 308l-38 21 50 53c83 89 111 161 112 291 1 216-87 346-265 393-63 17-235 16-295-1zm223-160c69-16 97-33 130-77 67-93 60-258-16-336-47-49-86-62-187-62-172 0-243 71-243 240 0 67 4 94 21 126 25 48 72 91 110 100 15 3 41 10 57 14 43 12 63 11 128-5zm1546-101c42-22 56-36 78-83 23-46 28-69 28-131 0-168-82-250-248-250-87 0-161 32-197 85-54 78-62 197-21 290 36 81 101 114 223 115 74 0 93-4 137-26zm-2718-85c75-38 115-127 107-240-6-75-41-157-76-174-11-6-26-16-33-22-28-22-129-34-196-22-127 22-186 102-185 250 0 132 63 215 177 232 55 9 168-4 206-24zm3968-7c53-32 76-70 91-150 10-47 10-73 0-114-28-126-67-165-184-187-82-15-173 2-221 42-60 49-79 98-80 202 0 78 3 96 25 135 30 54 91 97 145 103 88 10 178-3 224-31zm-1363-637c128-33 265-136 316-241 32-63 54-169 83-394 8-69 19-152 24-185s7-249 5-480c-2-333-6-421-16-426-164-79-242-150-277-254-8-22-14-79-14-127v-87l59-83c129-181 212-324 197-339-5-5-208-8-488-7l-480 3-50 76c-27 42-82 112-122 156-77 85-111 141-130 213-21 78-18 98 20 108 43 12 58-3 65-64 8-73 45-150 84-174 43-26 58-25 116 4 97 50 181 143 203 227 22 83-36 161-176 239-73 41-77 46-70 90 3 19 7 82 10 140 6 117 13 177 25 200 5 9 32 22 62 29 69 18 233 84 306 123 106 58 247 164 277 210 26 38 29 51 29 118-1 61-6 85-28 128-32 63-99 152-154 206-40 38-41 38-98 31-66-8-183-61-230-104-27-24-33-39-44-110-15-96-5-131 38-131 28 0 62 26 62 46 0 18 107 132 130 139 11 3 40-3 66-14l46-21-4-87c-4-99-23-149-75-200-43-42-126-79-196-88-55-7-58-6-88 26-69 74-116 152-138 229-7 25-17 58-22 74-50 165 95 558 264 712 117 107 237 133 413 89zm1248-1c159-22 304-163 371-359 41-119 49-329 16-445-5-19-15-62-21-95s-16-78-20-100c-5-22-17-74-25-115-11-47-41-126-82-210-36-74-69-144-73-155s-13-36-19-55c-23-64-26-231-5-312 10-40 21-77 26-82 4-6 8-16 8-23s21-47 46-90c115-195 174-345 174-444 0-68 1-67-130-79-52-5-187-18-300-29-118-12-301-21-430-23l-225-3-7 49c-16 114-82 224-189 317l-59 51v62c0 34 7 83 16 109l16 47h94c53 0 94-4 94-9 0-6-15-32-32-58-27-39-33-60-36-114-4-63-3-67 31-102 30-32 40-37 80-37 37 0 55 7 105 45 72 52 92 80 99 135 8 56-16 226-39 280-30 71-87 121-153 132-13 3-19 10-17 23 2 11 7 88 12 170 14 214 10 205 76 205 31 0 64-4 74-10 10-5 58-11 107-12 77-1 94 2 140 25 29 15 57 27 63 27s19 5 30 10c11 6 29 15 40 20 11 6 29 10 40 10 23 0 42 26 65 90 9 25 20 54 25 65 4 11 13 45 19 75 42 217-29 373-220 478-107 58-122 58-208 0-61-41-121-111-121-142 0-8-4-18-10-21-14-8-13-150 1-194 21-66 36-86 74-95 57-15 65 1 72 135 7 128 28 193 67 203 24 6 86-8 129-30 26-14 27-16 27-104 0-87-5-119-38-245-22-86-33-99-104-124-34-13-67-27-72-32-16-15-42-10-83 13-122 71-189 144-226 248-32 87-27 220 11 335 48 143 71 195 122 280 113 186 251 284 440 314 30 5 62 7 70 5 8-1 37-6 64-10zm-3979-29c33-9 73-23 89-31 16-7 34-14 40-14 19 0 153-93 203-140 26-25 66-67 88-94l40-49 7-241c4-133 11-299 16-371 20-285 33-454 41-535 5-47 9-164 10-262 2-159 0-178-16-190-36-26-115-123-138-168-40-80-50-141-36-206 22-98 57-148 125-183 48-23 99-76 93-95-3-8-150-11-533-11h-529l2 55c3 76 19 147 61 270 42 127 42 126 256 575 110 230 103 220 165 250 129 63 240 163 267 242 24 69 13 158-36 288-86 224-200 308-338 245-78-36-219-190-249-275-44-119-16-185 97-231 78-32 121-29 134 8 7 21 3 42-24 105-43 101-50 178-20 216 12 15 31 27 44 27 30 0 101-47 153-101 104-109 99-241-15-366-37-42-40-43-103-43-121 0-267 38-363 94-132 77-226 269-226 462 0 151 46 336 128 514 59 127 152 219 261 258 56 19 79 22 156 18 50-3 117-12 150-21zm1427-1c141-51 297-182 332-280 10-27 21-58 26-69 4-11 13-40 20-65 6-25 15-58 20-75 13-47 37-163 51-245 10-54 13-193 12-498l-1-422-34-58c-19-31-68-101-109-156-41-54-84-112-97-130-42-56-15-154 85-309 31-47 60-77 98-102 64-41 108-85 125-125 26-63 61-60-604-60-536 0-606 2-620 16-9 8-16 20-16 26 0 24-95 141-146 179-59 45-57 42-55 114 5 110 67 214 130 215 18 0 22-3 15-17-14-31-17-292-4-309 14-16 109-20 138-5 9 5 36 14 59 20 84 23 133 90 133 180-1 65-38 209-61 237-7 8-45 30-85 48-106 49-110 58-106 236 5 217 7 248 15 256 7 8 77-6 192-38 39-11 77-20 86-20 25 1 131 67 180 114 110 104 168 225 200 417 20 115-9 223-81 304-50 57-188 106-302 107-56 0-58-1-92-45-40-53-99-170-118-235-7-25-13-81-13-125 0-66 4-84 20-103 27-32 100-64 158-70l48-5-5 34c-3 19-10 70-16 114-5 44-12 94-15 110-9 51 48 95 124 95 72 0 74-6 61-175-6-83-16-163-22-180-27-73-112-127-220-140-74-9-112 4-170 61-91 88-125 202-113 379 12 168 47 295 120 432 164 309 420 452 657 367zm-600-2159c6-53 4-62-14-77-35-31-45-22-52 43-6 51-4 64 10 80 31 34 48 20 56-46zm3478-589c0-69-96-166-164-166-46 0-99 63-92 108 8 51 22 62 80 63 28 0 69 4 91 8 73 15 85 13 85-13zm-4492-15c10-6 12-23 6-70-3-34-11-64-15-67-5-3-9-13-9-23 0-24-57-86-103-111-62-33-96-27-147 25l-45 46-4 90c-1 49 0 96 3 104 4 12 32 15 153 15 81 0 154-4 161-9zm747-85v-89l-35-18c-45-24-92-75-110-119-20-46-18-174 3-220 20-46 68-90 114-107 55-19 192-17 234 3 56 28 98 74 114 128 37 124 0 245-94 305-27 18-52 39-55 47-12 31-6 141 8 153 9 8 179 10 617 9l604-3 3-86 3-87-50-30c-97-60-135-154-110-276 24-124 97-176 244-176 97 0 162 23 193 69 73 104 68 258-10 341-13 14-40 36-60 49l-38 23v89 89h489c555 0 501 10 501-95 0-68-6-95-22-95-28 0-100-68-125-117-24-50-25-61-20-139 5-72 10-90 36-128 44-64 98-86 208-86 109 1 163 24 208 91 28 42 30 49 30 144 0 93-2 103-28 143-16 24-50 57-78 74l-49 31v88 89h229c135 0 232-4 236-10 3-5-10-31-28-57-19-26-39-64-45-83-13-42-14-305-2-340 5-14 23-72 40-130s37-122 45-143 11-45 8-53c-4-12-257-14-1887-12l-1881 3 1 30c1 17 11 80 23 140 23 120 28 293 11 386-31 176-41 249-35 259 4 7 97 9 283 8l277-3v-89zm123-250c62-32 66-102 9-136-44-27-63-25-98 9-31 32-36 55-18 95 19 42 63 55 107 32zm1414-9c16-12 31-37 34-54 6-28 2-37-26-63-36-34-65-38-98-14-32 22-43 55-31 97 15 56 74 73 121 34zm1153 7c21-14 25-24 25-69 0-46-3-55-26-70-30-20-77-14-106 12-24 22-25 94 0 115 35 31 72 35 107 12zm-3868-420c34-22 55-60 64-117 16-96-28-168-113-186-90-20-164 13-194 85-27 64-11 169 30 203 48 40 161 48 213 15zm5193-2c36-22 43-32 58-73 35-102-12-209-104-229-54-12-132 5-165 36-14 14-31 42-38 63-33 111 11 197 114 224 32 9 108-3 135-21zm-4579-619c45-33 64-71 55-115-16-79-129-200-201-214-47-8-93 4-100 27-7 21 1 39 17 39 18 0 48 32 48 51 0 29 60 186 82 214 25 32 50 32 99-2z"/>
    </g>
</svg>
