<?xml version="1.0" encoding="utf-8" ?>
<svg baseProfile="tiny" height="520px" version="1.2" viewBox="0 0 496 520" width="496px" xmlns="http://www.w3.org/2000/svg" xmlns:ev="http://www.w3.org/2001/xml-events" xmlns:xlink="http://www.w3.org/1999/xlink"><defs /><g fill="none" stroke="white" stroke-width="3" vector-effect="non-scaling-stroke"><path d="M 226 20 L 225 21 L 202 22 L 198 24 L 192 24 L 172 28 L 167 31 L 164 31 L 156 35 L 146 38 L 144 40 L 141 40 L 129 46 L 128 48 L 126 48 L 123 51 L 116 54 L 97 69 L 94 70 L 63 101 L 63 103 L 60 105 L 59 108 L 52 116 L 38 139 L 30 156 L 30 159 L 27 164 L 25 173 L 22 177 L 20 191 L 17 198 L 17 206 L 15 215 L 14 261 L 15 262 L 16 282 L 18 287 L 17 290 L 20 297 L 22 311 L 25 315 L 27 325 L 30 329 L 32 337 L 49 368 L 59 380 L 60 383 L 63 385 L 63 387 L 82 407 L 87 410 L 95 419 L 97 419 L 113 432 L 123 437 L 129 442 L 137 446 L 140 446 L 150 452 L 156 453 L 172 460 L 191 463 L 194 465 L 201 465 L 210 467 L 226 467 L 227 468 L 249 468 L 250 467 L 273 466 L 278 464 L 281 465 L 284 463 L 303 460 L 304 458 L 309 458 L 312 456 L 318 455 L 319 453 L 323 453 L 344 443 L 346 441 L 348 441 L 349 439 L 351 439 L 362 431 L 364 431 L 376 421 L 379 420 L 384 414 L 387 413 L 407 393 L 407 391 L 414 385 L 414 383 L 425 370 L 425 368 L 428 366 L 430 360 L 435 354 L 435 352 L 442 340 L 446 328 L 449 323 L 452 311 L 454 308 L 456 294 L 459 287 L 459 280 L 461 271 L 461 251 L 462 250 L 461 217 L 460 216 L 459 203 L 457 199 L 454 180 L 452 177 L 451 171 L 447 163 L 446 158 L 441 149 L 439 142 L 425 118 L 423 117 L 422 114 L 414 104 L 405 95 L 404 92 L 389 77 L 386 76 L 377 67 L 364 57 L 362 57 L 353 50 L 349 49 L 348 47 L 344 46 L 330 38 L 322 36 L 311 31 L 308 31 L 304 28 L 285 25 L 282 23 L 277 24 L 274 22 L 267 22 L 266 21 L 227 20 Z" /><path d="M 234 28 L 235 27 L 240 27 L 244 29 L 251 28 L 252 29 L 285 32 L 288 34 L 304 37 L 309 40 L 312 40 L 316 42 L 319 42 L 340 53 L 342 53 L 351 60 L 355 61 L 365 69 L 367 69 L 377 79 L 379 79 L 402 102 L 403 105 L 408 109 L 408 111 L 419 124 L 427 139 L 430 142 L 430 144 L 432 146 L 438 159 L 441 171 L 444 175 L 446 185 L 448 188 L 451 203 L 451 211 L 453 215 L 453 223 L 454 224 L 454 264 L 453 265 L 453 273 L 451 276 L 451 284 L 448 300 L 446 303 L 444 313 L 440 321 L 439 327 L 436 331 L 432 343 L 430 344 L 429 348 L 425 353 L 425 355 L 423 356 L 419 364 L 412 372 L 411 375 L 409 376 L 408 379 L 380 408 L 373 414 L 371 414 L 367 419 L 365 419 L 352 429 L 350 429 L 342 435 L 336 437 L 335 439 L 326 442 L 319 446 L 313 447 L 311 449 L 297 452 L 295 454 L 286 455 L 281 457 L 272 457 L 262 460 L 214 460 L 213 459 L 207 459 L 204 457 L 196 457 L 181 454 L 178 452 L 171 451 L 168 449 L 162 448 L 160 446 L 154 445 L 132 434 L 129 431 L 123 429 L 106 417 L 89 401 L 87 401 L 81 393 L 69 381 L 62 372 L 62 370 L 55 362 L 54 358 L 52 357 L 52 355 L 46 347 L 36 326 L 36 323 L 30 308 L 30 304 L 27 297 L 25 282 L 23 279 L 23 272 L 22 271 L 22 256 L 21 255 L 22 217 L 28 187 L 30 184 L 31 177 L 35 168 L 36 162 L 41 154 L 41 151 L 43 149 L 46 141 L 52 133 L 55 126 L 65 114 L 66 111 L 69 109 L 70 106 L 100 76 L 103 75 L 105 72 L 108 71 L 116 64 L 137 51 L 140 51 L 148 46 L 168 38 L 183 35 L 186 33 L 194 31 L 233 28 Z" /><path d="M 227 31 L 226 32 L 212 32 L 211 33 L 195 34 L 192 36 L 180 38 L 177 40 L 170 41 L 153 47 L 128 60 L 125 63 L 117 67 L 112 72 L 106 75 L 105 77 L 102 78 L 72 108 L 72 110 L 61 123 L 57 129 L 57 131 L 51 139 L 46 151 L 41 159 L 41 162 L 38 166 L 36 175 L 33 180 L 29 205 L 27 208 L 27 215 L 26 216 L 25 259 L 26 260 L 27 280 L 31 294 L 32 304 L 36 313 L 38 322 L 41 326 L 41 329 L 51 349 L 57 357 L 58 361 L 68 373 L 69 376 L 72 378 L 72 380 L 89 398 L 101 409 L 103 409 L 113 418 L 119 421 L 120 423 L 127 426 L 133 431 L 135 431 L 137 433 L 156 442 L 159 442 L 163 445 L 189 452 L 201 453 L 203 455 L 228 456 L 229 457 L 247 457 L 248 456 L 272 455 L 275 453 L 281 453 L 296 449 L 300 449 L 302 447 L 315 444 L 317 442 L 322 441 L 330 436 L 337 434 L 349 427 L 352 424 L 356 423 L 365 415 L 372 411 L 378 404 L 380 404 L 398 386 L 398 384 L 401 382 L 416 363 L 418 358 L 424 350 L 430 336 L 435 328 L 435 325 L 439 318 L 441 308 L 443 306 L 444 296 L 447 286 L 447 279 L 449 276 L 451 240 L 450 239 L 450 220 L 449 219 L 449 212 L 447 209 L 446 196 L 438 167 L 436 165 L 436 162 L 431 154 L 429 148 L 424 140 L 424 138 L 418 130 L 416 125 L 413 123 L 413 121 L 399 105 L 398 102 L 380 84 L 378 84 L 370 76 L 356 65 L 354 65 L 339 55 L 317 46 L 315 44 L 312 44 L 306 41 L 303 41 L 300 39 L 292 37 L 274 35 L 272 33 L 250 32 L 249 31 L 228 31 Z" /><path d="M 241 435 L 244 434 L 250 444 L 257 451 L 256 452 L 232 452 L 231 451 L 233 450 L 234 445 L 240 436 Z" /><path d="M 232 36 L 233 35 L 241 35 L 242 36 L 271 37 L 276 39 L 279 38 L 280 40 L 299 43 L 304 46 L 313 48 L 315 50 L 318 50 L 326 55 L 333 58 L 336 58 L 338 61 L 340 61 L 350 68 L 352 68 L 364 78 L 366 78 L 368 81 L 371 82 L 376 88 L 390 100 L 390 102 L 401 112 L 401 114 L 416 133 L 416 135 L 424 147 L 424 149 L 432 163 L 435 175 L 438 180 L 439 189 L 444 205 L 444 212 L 446 221 L 446 267 L 445 268 L 443 288 L 441 290 L 438 308 L 436 311 L 432 325 L 430 327 L 430 329 L 421 347 L 401 376 L 370 407 L 352 420 L 347 422 L 346 424 L 344 424 L 339 428 L 333 430 L 325 435 L 320 436 L 316 439 L 304 442 L 299 445 L 294 445 L 285 447 L 282 449 L 269 450 L 268 451 L 266 450 L 265 446 L 261 445 L 260 440 L 261 428 L 266 425 L 265 421 L 255 420 L 253 422 L 253 425 L 255 426 L 255 430 L 253 434 L 246 426 L 242 426 L 233 437 L 232 436 L 232 426 L 234 425 L 234 422 L 229 422 L 226 420 L 220 420 L 220 424 L 223 428 L 223 440 L 225 444 L 223 447 L 220 447 L 219 452 L 188 448 L 186 446 L 177 445 L 171 442 L 159 439 L 153 435 L 143 432 L 132 424 L 126 422 L 115 414 L 114 412 L 112 412 L 100 402 L 80 382 L 69 369 L 68 366 L 66 365 L 65 362 L 58 353 L 49 336 L 49 334 L 46 330 L 46 328 L 44 327 L 44 324 L 42 321 L 42 318 L 39 313 L 39 310 L 36 303 L 35 293 L 32 286 L 31 270 L 30 269 L 30 254 L 28 250 L 28 238 L 30 234 L 30 218 L 31 217 L 33 197 L 35 194 L 37 181 L 44 165 L 44 162 L 47 158 L 47 156 L 52 148 L 54 142 L 73 114 L 101 85 L 128 65 L 152 52 L 160 50 L 165 47 L 174 45 L 176 43 L 195 40 L 198 38 L 205 38 L 214 36 L 231 36 Z" /><path d="M 395 323 L 386 334 L 383 343 L 385 343 L 389 340 L 394 343 L 403 351 L 403 358 L 404 359 L 407 359 L 414 350 L 414 345 L 410 345 L 396 333 L 396 328 L 398 327 L 398 324 L 396 323 Z" /><path d="M 65 322 L 64 324 L 59 327 L 57 334 L 58 347 L 65 351 L 77 351 L 81 349 L 89 341 L 89 330 L 84 325 L 83 322 L 66 322 Z" /><path d="M 71 330 L 72 329 L 79 329 L 82 332 L 81 339 L 78 340 L 74 344 L 70 345 L 65 339 L 71 331 Z" /><path d="M 82 116 L 78 121 L 78 128 L 88 138 L 87 139 L 66 139 L 59 145 L 60 148 L 68 147 L 70 150 L 75 152 L 78 155 L 80 163 L 84 163 L 89 159 L 90 152 L 80 152 L 78 150 L 78 147 L 79 146 L 88 146 L 91 144 L 99 143 L 98 138 L 85 127 L 84 125 L 85 116 L 83 116 Z" /><path d="M 218 76 L 215 78 L 207 78 L 192 81 L 162 92 L 150 99 L 149 101 L 145 102 L 134 110 L 132 113 L 130 113 L 106 137 L 106 139 L 96 151 L 86 168 L 86 170 L 81 179 L 77 194 L 75 197 L 72 212 L 72 219 L 70 222 L 69 250 L 70 251 L 70 266 L 72 268 L 73 281 L 80 306 L 93 332 L 104 346 L 104 348 L 108 353 L 129 374 L 132 375 L 134 378 L 136 378 L 139 382 L 141 382 L 145 386 L 157 393 L 170 399 L 175 400 L 177 402 L 183 403 L 192 407 L 208 410 L 216 410 L 219 412 L 256 412 L 260 410 L 267 410 L 283 407 L 285 405 L 289 405 L 301 401 L 303 399 L 306 399 L 327 388 L 328 386 L 330 386 L 342 376 L 345 375 L 370 350 L 370 348 L 380 336 L 391 316 L 398 298 L 399 291 L 401 289 L 403 279 L 404 262 L 406 259 L 405 255 L 405 248 L 406 247 L 406 242 L 405 241 L 406 234 L 405 231 L 406 228 L 404 226 L 404 217 L 403 216 L 401 199 L 399 197 L 399 193 L 396 187 L 395 181 L 393 179 L 390 170 L 395 168 L 396 162 L 401 155 L 401 153 L 406 147 L 408 142 L 408 137 L 394 138 L 388 140 L 374 137 L 375 142 L 374 144 L 370 140 L 369 137 L 362 131 L 361 128 L 354 121 L 352 121 L 345 113 L 342 112 L 330 102 L 328 102 L 327 100 L 306 89 L 301 88 L 299 86 L 296 86 L 289 83 L 285 83 L 283 81 L 268 78 L 261 78 L 257 76 L 238 76 L 237 77 L 236 76 L 227 76 L 226 77 L 219 76 Z" /><path d="M 148 355 L 150 354 L 154 357 L 153 364 L 147 370 L 143 370 L 141 368 L 144 366 L 145 360 L 148 356 Z" /><path d="M 138 352 L 139 351 L 140 352 L 139 353 Z" /><path d="M 108 346 L 109 345 L 110 346 L 109 347 Z" /><path d="M 367 344 L 368 343 L 369 344 L 368 345 Z" /><path d="M 369 341 L 370 340 L 371 341 L 370 342 Z" /><path d="M 148 339 L 149 338 L 327 338 L 332 347 L 332 360 L 330 363 L 326 366 L 320 366 L 314 360 L 314 351 L 315 350 L 318 350 L 321 352 L 321 358 L 323 360 L 325 360 L 327 358 L 327 351 L 319 344 L 315 344 L 313 346 L 311 346 L 306 354 L 305 358 L 306 362 L 317 371 L 327 371 L 335 365 L 335 363 L 339 359 L 339 339 L 340 338 L 342 339 L 342 342 L 344 345 L 349 348 L 358 349 L 364 347 L 365 349 L 344 370 L 334 378 L 331 379 L 322 386 L 318 387 L 315 390 L 309 393 L 306 393 L 300 397 L 297 397 L 282 403 L 265 405 L 263 407 L 223 408 L 222 407 L 205 406 L 203 404 L 186 401 L 179 397 L 173 396 L 155 387 L 147 381 L 145 381 L 142 377 L 140 377 L 120 360 L 116 354 L 109 347 L 111 346 L 117 349 L 123 349 L 130 346 L 133 343 L 134 344 L 131 355 L 132 366 L 139 373 L 145 376 L 152 375 L 158 365 L 158 357 L 156 353 L 149 349 L 142 349 L 140 352 L 139 351 L 139 349 L 142 346 L 143 343 L 147 340 Z" /><path d="M 134 339 L 135 338 L 136 339 L 134 344 L 133 343 L 133 340 Z" /><path d="M 351 328 L 352 327 L 359 327 L 363 331 L 362 337 L 359 340 L 356 341 L 351 340 L 349 338 L 348 333 L 350 329 Z" /><path d="M 118 327 L 123 326 L 127 330 L 127 337 L 124 340 L 121 341 L 117 340 L 113 336 L 113 331 L 117 327 Z" /><path d="M 295 309 L 299 308 L 301 310 L 301 312 L 299 314 L 296 314 L 294 312 L 295 310 Z" /><path d="M 243 309 L 247 308 L 249 311 L 248 313 L 243 314 L 242 310 Z" /><path d="M 179 309 L 183 308 L 185 310 L 185 312 L 183 314 L 180 314 L 179 310 Z" /><path d="M 153 293 L 154 292 L 177 292 L 178 293 L 178 299 L 172 304 L 170 309 L 170 315 L 174 321 L 179 323 L 185 323 L 188 322 L 192 317 L 192 306 L 186 300 L 186 293 L 187 292 L 239 292 L 242 295 L 242 299 L 234 307 L 234 316 L 237 321 L 242 323 L 247 323 L 254 320 L 256 316 L 255 305 L 249 300 L 249 293 L 250 292 L 292 292 L 294 294 L 294 299 L 289 303 L 286 308 L 286 315 L 289 319 L 289 321 L 295 323 L 301 323 L 304 320 L 306 320 L 308 317 L 308 307 L 302 300 L 301 294 L 303 292 L 320 292 L 321 296 L 318 300 L 318 315 L 321 320 L 321 323 L 323 327 L 322 330 L 154 330 L 153 329 L 153 324 L 154 323 L 153 294 Z" /><path d="M 131 293 L 132 292 L 142 292 L 144 294 L 142 302 L 137 306 L 133 305 L 129 300 L 130 294 Z" /><path d="M 344 292 L 346 291 L 347 293 L 341 299 L 338 299 L 335 296 L 338 292 L 343 292 Z" /><path d="M 187 264 L 188 263 L 190 264 L 190 268 L 188 270 L 186 265 Z" /><path d="M 389 168 L 390 167 L 391 168 L 390 170 L 389 169 Z" /><path d="M 324 167 L 325 166 L 326 167 L 335 167 L 341 170 L 347 177 L 350 184 L 350 188 L 352 191 L 347 220 L 339 234 L 339 239 L 338 240 L 338 247 L 340 256 L 344 261 L 349 271 L 350 281 L 349 282 L 340 282 L 339 283 L 327 283 L 324 285 L 302 285 L 301 284 L 301 279 L 297 272 L 290 266 L 291 258 L 292 257 L 298 257 L 299 258 L 297 261 L 296 266 L 300 271 L 304 271 L 307 268 L 310 267 L 311 265 L 311 252 L 308 248 L 308 246 L 302 243 L 303 227 L 304 226 L 319 227 L 329 223 L 333 214 L 332 199 L 325 191 L 320 188 L 317 188 L 313 190 L 307 198 L 307 207 L 309 211 L 314 211 L 314 200 L 318 196 L 320 196 L 324 199 L 322 216 L 320 218 L 317 218 L 314 220 L 309 218 L 302 211 L 300 204 L 301 193 L 304 184 L 313 172 L 323 167 Z" /><path d="M 209 167 L 213 166 L 223 171 L 232 180 L 234 189 L 236 192 L 237 203 L 238 204 L 238 242 L 232 250 L 232 252 L 226 259 L 226 263 L 232 275 L 237 278 L 241 283 L 239 285 L 186 285 L 182 278 L 176 272 L 176 267 L 180 261 L 181 262 L 181 274 L 183 276 L 191 275 L 196 271 L 197 264 L 194 254 L 192 254 L 186 250 L 186 233 L 187 232 L 193 232 L 197 234 L 200 234 L 211 225 L 216 213 L 216 200 L 214 197 L 208 192 L 197 191 L 195 192 L 194 195 L 191 198 L 189 205 L 189 213 L 194 217 L 198 217 L 197 205 L 200 202 L 204 202 L 206 204 L 204 219 L 199 223 L 193 223 L 192 224 L 182 215 L 181 205 L 182 204 L 182 196 L 184 194 L 185 188 L 194 175 L 200 170 L 204 168 L 208 168 Z" /><path d="M 141 167 L 145 166 L 148 168 L 159 170 L 164 173 L 173 183 L 174 215 L 175 216 L 175 231 L 176 232 L 177 247 L 176 248 L 176 255 L 173 257 L 168 265 L 168 274 L 170 278 L 175 281 L 177 284 L 176 285 L 131 285 L 130 284 L 133 268 L 149 235 L 160 228 L 164 223 L 163 209 L 158 200 L 153 197 L 148 197 L 144 199 L 137 206 L 135 211 L 135 217 L 139 221 L 145 222 L 143 207 L 145 205 L 151 207 L 154 210 L 156 215 L 155 222 L 151 227 L 141 227 L 138 225 L 132 224 L 131 222 L 129 222 L 127 220 L 127 218 L 122 211 L 121 197 L 125 183 L 130 174 L 135 169 L 140 168 Z" /><path d="M 266 166 L 267 165 L 272 165 L 285 171 L 290 176 L 292 182 L 292 187 L 294 190 L 294 196 L 295 197 L 295 241 L 296 243 L 288 249 L 286 249 L 281 258 L 281 266 L 287 273 L 293 283 L 291 285 L 250 285 L 245 279 L 244 276 L 238 271 L 235 264 L 235 262 L 238 260 L 241 269 L 243 271 L 249 271 L 255 266 L 255 264 L 258 261 L 258 257 L 252 250 L 248 249 L 246 246 L 246 240 L 248 237 L 248 230 L 258 226 L 261 226 L 272 218 L 274 218 L 279 212 L 278 209 L 279 204 L 277 202 L 276 198 L 268 191 L 262 192 L 257 195 L 254 198 L 253 201 L 253 206 L 254 207 L 258 207 L 259 204 L 264 199 L 267 199 L 269 201 L 269 207 L 266 213 L 263 214 L 262 216 L 255 218 L 248 210 L 245 203 L 245 194 L 250 183 L 250 180 L 258 170 L 265 166 Z" /><path d="M 384 160 L 385 159 L 386 160 L 385 161 Z" /><path d="M 383 158 L 384 157 L 385 158 L 384 160 L 383 159 Z" /><path d="M 377 149 L 378 148 L 379 149 L 378 150 Z" /><path d="M 376 147 L 377 146 L 378 147 L 377 148 Z" /><path d="M 382 145 L 383 144 L 386 146 L 389 146 L 391 150 L 391 154 L 390 155 L 384 155 L 382 157 L 378 150 L 381 149 L 381 146 Z" /><path d="M 398 144 L 400 143 L 401 144 L 400 146 L 397 148 L 396 147 L 397 145 Z" /><path d="M 374 144 L 375 143 L 377 145 L 376 147 L 374 145 Z" /><path d="M 329 137 L 330 136 L 337 137 L 342 144 L 341 153 L 334 158 L 328 158 L 324 156 L 320 151 L 321 141 L 325 137 L 328 137 Z" /><path d="M 149 137 L 150 136 L 157 137 L 163 143 L 162 153 L 155 158 L 148 158 L 142 152 L 141 149 L 142 141 L 146 137 L 148 137 Z" /><path d="M 271 133 L 272 132 L 278 132 L 283 135 L 286 140 L 286 146 L 284 150 L 278 154 L 272 154 L 265 149 L 264 140 L 266 136 L 270 133 Z" /><path d="M 208 129 L 209 128 L 214 130 L 218 135 L 218 145 L 214 149 L 211 150 L 202 149 L 197 144 L 197 136 L 199 132 L 202 130 L 207 129 Z" /><path d="M 219 81 L 220 80 L 255 80 L 258 82 L 266 82 L 281 85 L 283 87 L 291 88 L 302 92 L 319 100 L 320 102 L 325 104 L 342 116 L 369 144 L 369 146 L 374 151 L 387 173 L 392 188 L 395 192 L 398 209 L 400 211 L 401 231 L 402 232 L 402 258 L 400 268 L 400 277 L 398 279 L 396 292 L 393 297 L 392 303 L 389 308 L 388 313 L 380 326 L 380 328 L 377 331 L 376 335 L 373 337 L 371 341 L 370 340 L 370 327 L 362 319 L 350 319 L 342 325 L 340 330 L 336 330 L 330 324 L 328 319 L 328 311 L 327 310 L 329 308 L 342 308 L 350 305 L 354 302 L 358 296 L 360 290 L 363 290 L 368 287 L 374 286 L 375 284 L 378 283 L 387 272 L 392 262 L 394 255 L 394 237 L 392 235 L 392 232 L 385 224 L 380 221 L 369 223 L 359 230 L 359 232 L 356 236 L 356 243 L 362 251 L 371 250 L 379 243 L 380 235 L 377 230 L 373 229 L 372 230 L 372 242 L 371 243 L 366 243 L 365 242 L 365 236 L 367 232 L 372 227 L 377 227 L 385 233 L 388 243 L 387 244 L 387 252 L 385 256 L 385 259 L 378 271 L 370 277 L 361 279 L 359 273 L 354 265 L 353 260 L 351 258 L 348 243 L 351 234 L 355 228 L 356 222 L 358 220 L 357 216 L 359 214 L 359 187 L 357 184 L 357 179 L 355 177 L 354 173 L 344 163 L 346 158 L 349 155 L 350 151 L 349 137 L 346 133 L 341 129 L 337 128 L 325 128 L 320 130 L 319 132 L 317 132 L 312 143 L 313 154 L 317 161 L 310 166 L 299 178 L 294 168 L 285 160 L 290 156 L 293 150 L 292 132 L 287 127 L 283 125 L 269 124 L 263 127 L 257 135 L 257 149 L 259 154 L 263 158 L 259 161 L 256 161 L 251 165 L 244 173 L 244 176 L 241 179 L 237 168 L 230 161 L 220 155 L 227 143 L 227 135 L 223 126 L 220 123 L 215 121 L 201 121 L 193 125 L 190 131 L 190 136 L 189 137 L 190 146 L 193 152 L 198 155 L 199 157 L 196 159 L 196 161 L 181 178 L 178 176 L 177 173 L 163 162 L 168 157 L 170 153 L 170 139 L 164 131 L 157 128 L 146 128 L 139 131 L 136 134 L 133 141 L 133 152 L 138 161 L 132 166 L 129 167 L 121 175 L 121 177 L 118 180 L 115 186 L 114 194 L 112 197 L 112 204 L 114 206 L 114 211 L 116 214 L 116 217 L 120 223 L 126 229 L 139 235 L 139 239 L 136 249 L 126 265 L 126 268 L 123 271 L 119 282 L 112 282 L 106 280 L 96 271 L 91 263 L 87 244 L 90 237 L 96 231 L 104 228 L 108 228 L 114 237 L 115 247 L 113 249 L 109 249 L 106 245 L 107 232 L 104 232 L 101 239 L 99 240 L 98 248 L 102 253 L 111 255 L 120 247 L 122 243 L 122 237 L 118 231 L 118 229 L 113 224 L 101 224 L 86 232 L 81 244 L 82 247 L 80 250 L 80 254 L 82 257 L 82 262 L 86 269 L 96 281 L 108 291 L 118 293 L 120 295 L 123 303 L 130 311 L 136 314 L 144 313 L 146 315 L 144 318 L 144 323 L 139 330 L 136 330 L 133 327 L 132 323 L 127 319 L 114 319 L 112 321 L 108 322 L 105 328 L 105 339 L 106 340 L 105 342 L 100 336 L 100 334 L 96 329 L 95 325 L 93 324 L 88 313 L 86 311 L 86 308 L 80 293 L 78 281 L 76 278 L 75 265 L 74 264 L 74 246 L 73 244 L 74 243 L 75 216 L 76 215 L 76 210 L 78 208 L 80 195 L 86 181 L 86 178 L 92 166 L 95 163 L 96 159 L 105 148 L 107 143 L 127 122 L 135 115 L 137 115 L 140 111 L 142 111 L 146 106 L 150 105 L 164 96 L 169 95 L 181 89 L 184 89 L 193 85 L 209 83 L 210 82 L 217 82 L 218 81 Z" /><path d="M 231 38 L 229 40 L 222 39 L 218 41 L 218 44 L 227 46 L 227 51 L 228 52 L 226 66 L 221 69 L 221 71 L 223 72 L 237 72 L 239 70 L 239 68 L 237 68 L 235 66 L 236 61 L 240 57 L 250 58 L 253 55 L 253 45 L 251 43 L 242 38 L 232 38 Z" /><path d="M 238 45 L 239 44 L 243 45 L 246 50 L 245 53 L 236 54 L 235 53 L 235 47 L 237 45 Z" /></g></svg>